<?xml version="1.0" encoding="UTF-8" standalone="no"?>
<!-- Created with Inkscape (http://www.inkscape.org/) -->

<svg
   width="100mm"
   height="160mm"
   viewBox="0 0 100 160"
   version="1.1"
   id="svg5"
   xml:space="preserve"
   inkscape:version="1.2.2 (1:1.2.2+202305151914+b0a8486541)"
   sodipodi:docname="favicon.svg"
   xmlns:inkscape="http://www.inkscape.org/namespaces/inkscape"
   xmlns:sodipodi="http://sodipodi.sourceforge.net/DTD/sodipodi-0.dtd"
   xmlns="http://www.w3.org/2000/svg"
   xmlns:svg="http://www.w3.org/2000/svg"><sodipodi:namedview
     id="namedview7"
     pagecolor="#ffffff"
     bordercolor="#000000"
     borderopacity="0.25"
     inkscape:showpageshadow="2"
     inkscape:pageopacity="0"
     inkscape:pagecheckerboard="0"
     inkscape:deskcolor="#d1d1d1"
     inkscape:document-units="mm"
     showgrid="false"
     inkscape:zoom="0.71181887"
     inkscape:cx="567.56012"
     inkscape:cy="243.74178"
     inkscape:window-width="1366"
     inkscape:window-height="704"
     inkscape:window-x="1360"
     inkscape:window-y="27"
     inkscape:window-maximized="1"
     inkscape:current-layer="text15311" /><defs
     id="defs2"><inkscape:path-effect
       effect="fillet_chamfer"
       id="path-effect9861"
       is_visible="true"
       lpeversion="1"
       nodesatellites_param="F,0,0,1,0,6.6145833,0,1 @ F,0,0,1,0,0,0,1 @ F,0,0,1,0,0,0,1 @ F,0,0,1,0,6.6145833,0,1"
       unit="px"
       method="auto"
       mode="F"
       radius="25"
       chamfer_steps="1"
       flexible="false"
       use_knot_distance="true"
       apply_no_radius="true"
       apply_with_radius="true"
       only_selected="false"
       hide_knots="false" /><rect
       x="989.40674"
       y="375.49774"
       width="53.642532"
       height="27.814648"
       id="rect12899" /><rect
       x="657.61774"
       y="182.78197"
       width="150.9938"
       height="137.08647"
       id="rect12893" /><inkscape:path-effect
       effect="fillet_chamfer"
       id="path-effect9861-0"
       is_visible="true"
       lpeversion="1"
       nodesatellites_param="F,0,0,1,0,6.6145833,0,1 @ F,0,0,1,0,0,0,1 @ F,0,0,1,0,0,0,1 @ F,0,0,1,0,6.6145833,0,1"
       unit="px"
       method="auto"
       mode="F"
       radius="25"
       chamfer_steps="1"
       flexible="false"
       use_knot_distance="true"
       apply_no_radius="true"
       apply_with_radius="true"
       only_selected="false"
       hide_knots="false" /></defs><g
     inkscape:label="Telefone"
     inkscape:groupmode="layer"
     id="layer1"><g
       id="g12895"><rect
         style="fill:#dcdcdc;fill-opacity:1;stroke:#000000;stroke-width:3;stroke-linecap:butt;stroke-linejoin:round;stroke-miterlimit:100;stroke-dasharray:none;stroke-dashoffset:0;stroke-opacity:1;paint-order:normal"
         id="rect111"
         width="96.993683"
         height="156.99368"
         x="1.5031583"
         y="1.5031583"
         ry="12.61593" /><ellipse
         style="fill:#ffffff;fill-opacity:0;stroke:#5a5a5a;stroke-width:2.71047;stroke-linecap:butt;stroke-linejoin:miter;stroke-miterlimit:100;stroke-dasharray:none;stroke-dashoffset:0;stroke-opacity:1;paint-order:normal"
         id="path5411"
         cx="50"
         cy="146"
         rx="6.6447654"
         ry="6.6447701" /><g
         id="g12057"
         transform="matrix(0.9994744,0,0,1.0001337,-82.814506,6.0000011)"><rect
           style="fill:#ffffff;fill-opacity:0;stroke:#5a5a5a;stroke-width:3.27146;stroke-linecap:round;stroke-linejoin:round;stroke-miterlimit:100;stroke-dasharray:none;stroke-dashoffset:0;stroke-opacity:1;paint-order:normal"
           id="rect10547"
           width="16.728542"
           height="1.7285424"
           x="120.51272"
           y="1.635729" /><ellipse
           style="fill:#5a5a5a;fill-opacity:1;stroke:#5a5a5a;stroke-width:2.02757;stroke-linecap:round;stroke-linejoin:round;stroke-miterlimit:100;stroke-dasharray:none;stroke-dashoffset:0;stroke-opacity:1;paint-order:normal"
           id="path11327"
           cx="144.39084"
           cy="2.4999995"
           rx="1.4862152"
           ry="1.4862148" /></g><rect
         style="fill:#000000;fill-opacity:1;stroke:#c4cad9;stroke-width:0;stroke-linecap:round;stroke-linejoin:round;stroke-miterlimit:100;stroke-dasharray:none"
         id="rect11075-9"
         width="100"
         height="1.9999989"
         x="3.5e-06"
         y="132.78142"
         ry="0" /><rect
         style="fill:#000000;fill-opacity:1;stroke:#c4cad9;stroke-width:0;stroke-linecap:round;stroke-linejoin:round;stroke-miterlimit:100;stroke-dasharray:none"
         id="rect11075"
         width="100"
         height="1.9999989"
         x="3.5e-06"
         y="15.000004"
         ry="0" /></g></g><g
     inkscape:groupmode="layer"
     id="layer2"
     inkscape:label="Conteúdo interno"><g
       id="g13087"
       transform="translate(1.8585018,-10.03591)"><g
         id="g11018"
         transform="matrix(1,0,0,1.0049697,-61.358502,33.598542)"><g
           id="g11005"><g
             id="g14382"
             transform="matrix(0.98043312,0,0,1.0222279,21.475125,4.380257)"><g
               id="g15156"
               transform="translate(3.4168141,-10.199753)"><path
                 style="fill:#ffffff;fill-opacity:0;stroke:#c4cad9;stroke-width:5.35054;stroke-linecap:square;stroke-linejoin:round;stroke-miterlimit:100;stroke-dasharray:none;stroke-opacity:1"
                 id="path972"
                 sodipodi:type="arc"
                 sodipodi:cx="-82.222588"
                 sodipodi:cy="-37.480434"
                 sodipodi:rx="9.7461443"
                 sodipodi:ry="18.800264"
                 sodipodi:start="0.072901908"
                 sodipodi:end="1.5879135"
                 sodipodi:arc-type="arc"
                 d="m -72.502331,-36.111073 a 9.7461443,18.800264 0 0 1 -9.887075,17.428149"
                 transform="matrix(-0.99867843,0.05139457,-0.0519053,-0.99865201,0,0)"
                 sodipodi:open="true" /><path
                 style="fill:#ffffff;fill-opacity:0;stroke:#bbc2cd;stroke-width:5.35054;stroke-linecap:square;stroke-linejoin:round;stroke-miterlimit:100;stroke-dasharray:none;stroke-opacity:1"
                 id="path972-0"
                 sodipodi:type="arc"
                 sodipodi:cx="89.323387"
                 sodipodi:cy="-28.652002"
                 sodipodi:rx="9.7461443"
                 sodipodi:ry="18.800264"
                 sodipodi:start="0.072901908"
                 sodipodi:end="1.5879135"
                 sodipodi:arc-type="arc"
                 d="M 99.043644,-27.282641 A 9.7461443,18.800264 0 0 1 89.156569,-9.8544921"
                 transform="matrix(0.99867843,0.05139457,0.0519053,-0.99865201,0,0)"
                 sodipodi:open="true" /></g></g><g
             id="g10996"
             transform="translate(3.5e-6,2.9851648)"><path
               style="fill:#fcb33b;fill-opacity:1;stroke:#141414;stroke-width:0;stroke-linecap:round;stroke-linejoin:round;stroke-miterlimit:100;stroke-dasharray:none"
               id="rect916"
               width="19.999998"
               height="25.871426"
               x="90"
               y="24.876375"
               ry="0"
               rx="0"
               inkscape:path-effect="#path-effect9861"
               d="M 96.614583,24.876375 H 110 V 50.747801 H 96.614583 A 6.6145833,6.6145833 45 0 1 90,44.133218 l 0,-12.64226 a 6.6145833,6.6145833 135 0 1 6.614583,-6.614583 z"
               sodipodi:type="rect" /><path
               style="fill:#f69838;fill-opacity:1;stroke:#141414;stroke-width:0;stroke-linecap:round;stroke-linejoin:round;stroke-miterlimit:100;stroke-dasharray:none"
               id="rect916-8"
               width="19.999998"
               height="25.871426"
               x="-129"
               y="24.876375"
               ry="0"
               rx="0"
               inkscape:path-effect="#path-effect9861-0"
               d="M -122.38542,24.876375 H -109 v 25.871426 h -13.38542 A 6.6145833,6.6145833 45 0 1 -129,44.133218 v -12.64226 a 6.6145833,6.6145833 135 0 1 6.61458,-6.614583 z"
               sodipodi:type="rect"
               transform="scale(-1,1)" /></g></g><g
           id="g10992"
           transform="matrix(1,0,0,0.99024378,14.499997,36.029657)"><path
             style="fill:#53565c;fill-opacity:1;stroke:#c4cad9;stroke-width:0;stroke-linecap:round;stroke-linejoin:round;stroke-miterlimit:100;stroke-dasharray:none"
             id="path10423"
             sodipodi:type="arc"
             sodipodi:cx="95.000008"
             sodipodi:cy="2.2534065"
             sodipodi:rx="4.9999981"
             sodipodi:ry="4.9752707"
             sodipodi:start="6.2822953"
             sodipodi:end="6.2696029"
             sodipodi:open="true"
             sodipodi:arc-type="arc"
             d="m 100,2.2489785 a 4.9999981,4.9752707 0 0 1 -4.979677,4.9796577 4.9999981,4.9752707 0 0 1 -5.020183,-4.9392279 4.9999981,4.9752707 0 0 1 4.947822,-5.011003 4.9999981,4.9752707 0 0 1 5.051583,4.9074271" /><rect
             style="fill:#53565c;fill-opacity:1;stroke:#c4cad9;stroke-width:0;stroke-linecap:round;stroke-linejoin:round;stroke-miterlimit:100;stroke-dasharray:none"
             id="rect10477"
             width="2.999999"
             height="6.9653831"
             x="93.5"
             y="5.3856235"
             ry="2.4267802"
             rx="1.4999995" /></g></g><g
         id="g13019"
         transform="matrix(0.95000716,0,0,1.0049342,26.375414,5.747672)"><g
           aria-label="****"
           transform="scale(1.0378878,0.96349529)"
           id="text15311"
           style="font-size:32.4946px;font-family:Broadway;-inkscape-font-specification:Broadway;fill:#272727;stroke-width:0;stroke-linecap:round;stroke-linejoin:round;stroke-miterlimit:100"><path
             d="m 4.859965,102.54785 -5.69607458,3.0781 5.69607458,3.09397 -0.9202571,1.55492 -5.3311451,-3.2209 v 5.98167 h -1.8087813 v -5.98167 l -5.3311451,3.2209 -0.9202572,-1.55492 5.6960746,-3.09397 -5.6960746,-3.0781 0.9202572,-1.57078 5.3311451,3.2209 v -5.981673 h 1.8087813 v 5.981673 l 5.3311451,-3.2209 z"
             id="path1046" /><path
             d="m 21.107264,102.54785 -5.696074,3.0781 5.696074,3.09397 -0.920257,1.55492 -5.331145,-3.2209 v 5.98167 h -1.808781 v -5.98167 l -5.3311454,3.2209 -0.9202572,-1.55492 5.6960746,-3.09397 -5.6960746,-3.0781 0.9202572,-1.57078 5.3311454,3.2209 v -5.981673 h 1.808781 v 5.981673 l 5.331145,-3.2209 z"
             id="path1048" /><path
             d="m 37.354563,102.54785 -5.696074,3.0781 5.696074,3.09397 -0.920257,1.55492 -5.331145,-3.2209 v 5.98167 H 29.29438 v -5.98167 l -5.331145,3.2209 -0.920257,-1.55492 5.696074,-3.09397 -5.696074,-3.0781 0.920257,-1.57078 5.331145,3.2209 v -5.981673 h 1.808781 v 5.981673 l 5.331145,-3.2209 z"
             id="path1050" /><path
             d="m 53.601863,102.54785 -5.696075,3.0781 5.696075,3.09397 -0.920258,1.55492 -5.331145,-3.2209 v 5.98167 h -1.808781 v -5.98167 l -5.331145,3.2209 -0.920257,-1.55492 5.696074,-3.09397 -5.696074,-3.0781 0.920257,-1.57078 5.331145,3.2209 v -5.981673 h 1.808781 v 5.981673 l 5.331145,-3.2209 z"
             id="path1052" /></g><rect
           style="fill:none;fill-opacity:1;stroke:#272727;stroke-width:1.74056;stroke-linecap:round;stroke-linejoin:round;stroke-miterlimit:100;stroke-dasharray:none;stroke-opacity:1"
           id="rect12837"
           width="88.785072"
           height="30.102324"
           x="-21.481037"
           y="86.718948"
           ry="10.642779" /></g></g></g></svg>
